<svg viewBox="0 0 860 436" xmlns="http://www.w3.org/2000/svg" font-family="system-ui, -apple-system, sans-serif">
  <defs>
    <marker id="arr" markerWidth="10" markerHeight="10" refX="8" refY="4" orient="auto">
      <path d="M0,0 L0,8 L10,4 z" fill="#94a3b8"/>
    </marker>
    <marker id="arr-sm" markerWidth="8" markerHeight="8" refX="6" refY="4" orient="auto">
      <path d="M0,0 L0,8 L8,4 z" fill="#94a3b8"/>
    </marker>
  </defs>

  <!-- Background -->
  <rect width="860" height="436" fill="#f8fafc"/>

  <!-- ══ GROWTH-PM ══ -->
  <rect x="230" y="16" width="400" height="56" rx="10" fill="#e0e7ff" stroke="#a5b4fc" stroke-width="1.5"/>
  <text x="430" y="39" text-anchor="middle" fill="#3730a3" font-size="15" font-weight="600">growth-pm</text>
  <text x="430" y="57" text-anchor="middle" fill="#6366f1" font-size="11">Growth strategy · Orchestrates workstreams · Performance tracking</text>

  <!-- Routing arrows from GROWTH-PM -->
  <path d="M430,72 L430,92 L220,92 L220,112" fill="none" stroke="#94a3b8" stroke-width="1.5" marker-end="url(#arr-sm)"/>
  <path d="M430,72 L430,92 L640,92 L640,112" fill="none" stroke="#94a3b8" stroke-width="1.5" marker-end="url(#arr-sm)"/>

  <!-- ══ LEFT: RESEARCH & AUDIT ══ -->
  <rect x="30" y="116" width="380" height="308" rx="6" fill="#ffffff" stroke="#cbd5e1" stroke-width="1.5" stroke-dasharray="7 4"/>
  <text x="220" y="136" text-anchor="middle" fill="#64748b" font-size="11" font-weight="600" letter-spacing="2">RESEARCH &amp; AUDIT</text>

  <!-- AEO-SEO-STRATEGY-ORCHESTRATOR -->
  <rect x="50" y="148" width="340" height="56" rx="8" fill="white" stroke="#cbd5e1" stroke-width="1.5"/>
  <text x="220" y="170" text-anchor="middle" fill="#374151" font-size="15" font-weight="600">aeo-seo-strategy-orchestrator</text>
  <text x="220" y="188" text-anchor="middle" fill="#9ca3af" font-size="10">Synthesizes strategy from all 3 skills below</text>

  <!-- AEO-TOPIC-RESEARCH -->
  <rect x="50" y="218" width="340" height="56" rx="8" fill="white" stroke="#cbd5e1" stroke-width="1.5"/>
  <text x="220" y="240" text-anchor="middle" fill="#374151" font-size="15" font-weight="600">aeo-topic-research</text>
  <text x="220" y="258" text-anchor="middle" fill="#9ca3af" font-size="10">Topic clusters · Citation opps · Format patterns</text>

  <!-- SEO-KEYWORD-RESEARCH -->
  <rect x="50" y="288" width="340" height="56" rx="8" fill="white" stroke="#cbd5e1" stroke-width="1.5"/>
  <text x="220" y="310" text-anchor="middle" fill="#374151" font-size="15" font-weight="600">seo-keyword-research</text>
  <text x="220" y="328" text-anchor="middle" fill="#9ca3af" font-size="10">Keyword tiers · Content gaps · IA recommendations</text>

  <!-- AEO-SEO-SITE-AUDIT -->
  <rect x="50" y="358" width="340" height="56" rx="8" fill="white" stroke="#cbd5e1" stroke-width="1.5"/>
  <text x="220" y="380" text-anchor="middle" fill="#374151" font-size="15" font-weight="600">aeo-seo-site-audit</text>
  <text x="220" y="398" text-anchor="middle" fill="#9ca3af" font-size="10">Schema fixes · Content quality · E-E-A-T analysis</text>

  <!-- Pipeline Arrow -->
  <line x1="410" y1="300" x2="442" y2="300" stroke="#94a3b8" stroke-width="1.5" marker-end="url(#arr)"/>

  <!-- ══ RIGHT: CONTENT & DISTRIBUTION ══ -->
  <rect x="450" y="116" width="380" height="308" rx="6" fill="#ffffff" stroke="#cbd5e1" stroke-width="1.5" stroke-dasharray="7 4"/>
  <text x="640" y="136" text-anchor="middle" fill="#64748b" font-size="11" font-weight="600" letter-spacing="2">CONTENT &amp; DISTRIBUTION</text>

  <!-- AEO-CONTENT-WRITER -->
  <rect x="470" y="148" width="340" height="56" rx="8" fill="white" stroke="#cbd5e1" stroke-width="1.5"/>
  <text x="640" y="170" text-anchor="middle" fill="#374151" font-size="15" font-weight="600">aeo-content-writer</text>
  <text x="640" y="188" text-anchor="middle" fill="#9ca3af" font-size="10">Blog post · FAQPage schema · Sitemap update</text>

  <!-- PUBLISH-CHECKLIST -->
  <rect x="470" y="218" width="340" height="56" rx="8" fill="white" stroke="#cbd5e1" stroke-width="1.5"/>
  <text x="640" y="240" text-anchor="middle" fill="#374151" font-size="15" font-weight="600">publish-checklist</text>
  <text x="640" y="258" text-anchor="middle" fill="#9ca3af" font-size="10">SEO · Schema validation · a11y · Build check</text>

  <!-- DISTRIBUTE-SOCIAL -->
  <rect x="470" y="288" width="340" height="56" rx="8" fill="white" stroke="#cbd5e1" stroke-width="1.5"/>
  <text x="640" y="310" text-anchor="middle" fill="#374151" font-size="15" font-weight="600">distribute-social</text>
  <text x="640" y="328" text-anchor="middle" fill="#9ca3af" font-size="10">Reddit + LinkedIn drafts · Social graphics</text>

  <!-- DISTRIBUTE-OUTREACH -->
  <rect x="470" y="358" width="340" height="56" rx="8" fill="white" stroke="#cbd5e1" stroke-width="1.5"/>
  <text x="640" y="380" text-anchor="middle" fill="#374151" font-size="15" font-weight="600">distribute-outreach</text>
  <text x="640" y="398" text-anchor="middle" fill="#9ca3af" font-size="10">Journalists · Substack · Bloggers · Pitches</text>

</svg>
