<svg viewBox="0 0 860 1140" xmlns="http://www.w3.org/2000/svg" font-family="ui-monospace, 'SF Mono', Menlo, monospace">
  <defs>
    <marker id="arr" markerWidth="10" markerHeight="10" refX="8" refY="4" orient="auto">
      <path d="M0,0 L0,8 L10,4 z" fill="#1e293b"/>
    </marker>
    <marker id="arr-sm" markerWidth="8" markerHeight="8" refX="6" refY="4" orient="auto">
      <path d="M0,0 L0,8 L8,4 z" fill="#64748b"/>
    </marker>
  </defs>

  <!-- Background -->
  <rect width="860" height="1140" fill="#ffffff"/>

  <!-- ══ TITLE ══ -->
  <text x="430" y="46" text-anchor="middle" fill="#0f172a" font-size="20" font-weight="700" letter-spacing="5">SKILL ARCHITECTURE</text>

  <!-- ══ LEGEND ══ -->
  <g transform="translate(170, 68)">
    <text x="-10" y="11" text-anchor="end" fill="#94a3b8" font-size="11" font-weight="700" letter-spacing="1">LEGEND:</text>
    <rect x="0" y="0" width="22" height="13" fill="none" stroke="#94a3b8" stroke-width="1.5" stroke-dasharray="5 3"/>
    <text x="30" y="11" fill="#475569" font-size="11">Conceptual group</text>
    <rect x="180" y="0" width="22" height="13" fill="#e2e8f0" stroke="#475569" stroke-width="1.5"/>
    <text x="210" y="11" fill="#475569" font-size="11">Skill</text>
    <rect x="310" y="0" width="22" height="13" fill="none" stroke="#94a3b8" stroke-width="1.5"/>
    <text x="340" y="11" fill="#475569" font-size="11">Agent(s)</text>
  </g>

  <!-- Divider -->
  <line x1="30" y1="100" x2="830" y2="100" stroke="#e2e8f0" stroke-width="1.5"/>

  <!-- ══ SECTION 1: RESEARCH & AUDIT ══ -->
  <!-- outer box: y=116, height=484 → bottom=600 -->
  <rect x="30" y="116" width="800" height="496" rx="4" fill="#ffffff" stroke="#94a3b8" stroke-width="1.5" stroke-dasharray="7 4"/>
  <rect x="30" y="116" width="800" height="30" rx="4" fill="#ffffff" stroke="#94a3b8" stroke-width="1.5" stroke-dasharray="7 4"/>
  <text x="430" y="136" text-anchor="middle" fill="#0f172a" font-size="12" font-weight="700" letter-spacing="3">RESEARCH &amp; AUDIT</text>

  <!-- Orchestrator: y=158 -->
  <rect x="48" y="158" width="764" height="52" rx="3" fill="#f8fafc" stroke="#475569" stroke-width="1.5"/>
  <rect x="48" y="158" width="764" height="22" rx="3" fill="#f1f5f9" stroke="#475569" stroke-width="1.5"/>
  <text x="430" y="173" text-anchor="middle" fill="#1e293b" font-size="11" font-weight="700" letter-spacing="1.5">AEO-SEO-STRATEGY-ORCHESTRATOR  <tspan fill="#94a3b8" font-weight="400" font-size="10">(optional)</tspan></text>
  <text x="430" y="197" text-anchor="middle" fill="#64748b" font-size="11">Runs all 3 skills in parallel → synthesizes unified strategy</text>

  <text x="430" y="228" text-anchor="middle" fill="#94a3b8" font-size="10" letter-spacing="3">— OR RUN INDIVIDUALLY —</text>

  <!-- ── Column 1: aeo-topic-research ── y=238 -->
  <rect x="48" y="238" width="244" height="358" rx="3" fill="#f8fafc" stroke="#475569" stroke-width="1.5"/>
  <rect x="48" y="238" width="244" height="26" rx="3" fill="#f1f5f9" stroke="#475569" stroke-width="1.5"/>
  <text x="170" y="255" text-anchor="middle" fill="#1e293b" font-size="11" font-weight="700" letter-spacing="1.5">AEO-TOPIC-RESEARCH</text>

  <text x="170" y="280" text-anchor="middle" fill="#94a3b8" font-size="10" letter-spacing="1.5">HAIKU · parallel</text>
  <rect x="62" y="286" width="216" height="22" rx="2" fill="#ffffff" stroke="#475569" stroke-width="1"/>
  <text x="170" y="301" text-anchor="middle" fill="#334155" font-size="11">Brand Radar agents (per engine)</text>

  <rect x="62" y="314" width="216" height="22" rx="2" fill="#ffffff" stroke="#475569" stroke-width="1"/>
  <text x="170" y="329" text-anchor="middle" fill="#334155" font-size="11">Reddit agent</text>

  <rect x="62" y="342" width="216" height="22" rx="2" fill="#ffffff" stroke="#475569" stroke-width="1"/>
  <text x="170" y="357" text-anchor="middle" fill="#334155" font-size="11">Page crawl agents (per URL)</text>

  <line x1="170" y1="364" x2="170" y2="380" stroke="#475569" stroke-width="1.5" marker-end="url(#arr)"/>

  <text x="170" y="396" text-anchor="middle" fill="#94a3b8" font-size="10" letter-spacing="1.5">SONNET</text>
  <rect x="62" y="402" width="216" height="58" rx="2" fill="#ffffff" stroke="#475569" stroke-width="1"/>
  <text x="170" y="419" text-anchor="middle" fill="#334155" font-size="11">Synthesize patterns</text>
  <text x="170" y="435" text-anchor="middle" fill="#334155" font-size="11">Score opportunities</text>
  <text x="170" y="451" text-anchor="middle" fill="#334155" font-size="11">Generate report</text>

  <line x1="170" y1="460" x2="170" y2="476" stroke="#475569" stroke-width="1.5" marker-end="url(#arr)"/>

  <rect x="62" y="476" width="216" height="108" rx="2" fill="#ffffff" stroke="#e2e8f0" stroke-width="1"/>
  <text x="170" y="492" text-anchor="middle" fill="#94a3b8" font-size="10" letter-spacing="2">OUTPUT</text>
  <text x="170" y="508" text-anchor="middle" fill="#475569" font-size="10">Topic clusters</text>
  <text x="170" y="522" text-anchor="middle" fill="#475569" font-size="10">Citation opps</text>
  <text x="170" y="536" text-anchor="middle" fill="#475569" font-size="10">Reddit glossary</text>
  <text x="170" y="550" text-anchor="middle" fill="#475569" font-size="10">Format patterns</text>

  <!-- ── Column 2: seo-keyword-research ── y=238 -->
  <rect x="308" y="238" width="244" height="358" rx="3" fill="#f8fafc" stroke="#475569" stroke-width="1.5"/>
  <rect x="308" y="238" width="244" height="26" rx="3" fill="#f1f5f9" stroke="#475569" stroke-width="1.5"/>
  <text x="430" y="255" text-anchor="middle" fill="#1e293b" font-size="11" font-weight="700" letter-spacing="1.5">SEO-KEYWORD-RESEARCH</text>

  <text x="430" y="280" text-anchor="middle" fill="#94a3b8" font-size="10" letter-spacing="1.5">HAIKU</text>
  <rect x="322" y="286" width="216" height="22" rx="2" fill="#ffffff" stroke="#475569" stroke-width="1"/>
  <text x="430" y="301" text-anchor="middle" fill="#334155" font-size="11">Competitor agents (per domain)</text>

  <line x1="430" y1="308" x2="430" y2="324" stroke="#475569" stroke-width="1.5" marker-end="url(#arr-sm)"/>
  <text x="445" y="319" fill="#94a3b8" font-size="9">keyword seeds</text>

  <rect x="322" y="324" width="216" height="22" rx="2" fill="#ffffff" stroke="#475569" stroke-width="1"/>
  <text x="430" y="339" text-anchor="middle" fill="#334155" font-size="11">Keyword research agent</text>

  <line x1="430" y1="346" x2="430" y2="380" stroke="#475569" stroke-width="1.5" marker-end="url(#arr)"/>

  <text x="430" y="396" text-anchor="middle" fill="#94a3b8" font-size="10" letter-spacing="1.5">SONNET</text>
  <rect x="322" y="402" width="216" height="58" rx="2" fill="#ffffff" stroke="#475569" stroke-width="1"/>
  <text x="430" y="419" text-anchor="middle" fill="#334155" font-size="11">Content gap analysis</text>
  <text x="430" y="435" text-anchor="middle" fill="#334155" font-size="11">Keyword prioritization</text>
  <text x="430" y="451" text-anchor="middle" fill="#334155" font-size="11">Generate report</text>

  <line x1="430" y1="460" x2="430" y2="476" stroke="#475569" stroke-width="1.5" marker-end="url(#arr)"/>

  <rect x="322" y="476" width="216" height="108" rx="2" fill="#ffffff" stroke="#e2e8f0" stroke-width="1"/>
  <text x="430" y="492" text-anchor="middle" fill="#94a3b8" font-size="10" letter-spacing="2">OUTPUT</text>
  <text x="430" y="508" text-anchor="middle" fill="#475569" font-size="10">Keyword tiers · Quick wins</text>
  <text x="430" y="522" text-anchor="middle" fill="#475569" font-size="10">Content gaps</text>
  <text x="430" y="536" text-anchor="middle" fill="#475569" font-size="10">IA recommendations</text>
  <text x="430" y="550" text-anchor="middle" fill="#475569" font-size="10">Traffic estimates</text>

  <!-- ── Column 3: aeo-seo-site-audit ── y=238 -->
  <rect x="568" y="238" width="244" height="358" rx="3" fill="#f8fafc" stroke="#475569" stroke-width="1.5"/>
  <rect x="568" y="238" width="244" height="26" rx="3" fill="#f1f5f9" stroke="#475569" stroke-width="1.5"/>
  <text x="690" y="255" text-anchor="middle" fill="#1e293b" font-size="11" font-weight="700" letter-spacing="1.5">AEO-SEO-SITE-AUDIT</text>

  <text x="690" y="280" text-anchor="middle" fill="#94a3b8" font-size="10" letter-spacing="1.5">HAIKU · parallel</text>
  <rect x="582" y="286" width="216" height="22" rx="2" fill="#ffffff" stroke="#475569" stroke-width="1"/>
  <text x="690" y="301" text-anchor="middle" fill="#334155" font-size="11">URL agents (per page)</text>

  <rect x="582" y="314" width="216" height="22" rx="2" fill="#ffffff" stroke="#475569" stroke-width="1"/>
  <text x="690" y="329" text-anchor="middle" fill="#334155" font-size="11">Ahrefs agent (if project ID)</text>

  <line x1="690" y1="336" x2="690" y2="380" stroke="#475569" stroke-width="1.5" marker-end="url(#arr)"/>

  <text x="690" y="396" text-anchor="middle" fill="#94a3b8" font-size="10" letter-spacing="1.5">SONNET</text>
  <rect x="582" y="402" width="216" height="58" rx="2" fill="#ffffff" stroke="#475569" stroke-width="1"/>
  <text x="690" y="419" text-anchor="middle" fill="#334155" font-size="11">Schema validation</text>
  <text x="690" y="435" text-anchor="middle" fill="#334155" font-size="11">Content + AEO analysis</text>
  <text x="690" y="451" text-anchor="middle" fill="#334155" font-size="11">Generate report</text>

  <line x1="690" y1="460" x2="690" y2="476" stroke="#475569" stroke-width="1.5" marker-end="url(#arr)"/>

  <rect x="582" y="476" width="216" height="108" rx="2" fill="#ffffff" stroke="#e2e8f0" stroke-width="1"/>
  <text x="690" y="492" text-anchor="middle" fill="#94a3b8" font-size="10" letter-spacing="2">OUTPUT</text>
  <text x="690" y="508" text-anchor="middle" fill="#475569" font-size="10">Schema fixes (JSON-LD)</text>
  <text x="690" y="522" text-anchor="middle" fill="#475569" font-size="10">Content quality gaps</text>
  <text x="690" y="536" text-anchor="middle" fill="#475569" font-size="10">AEO formatting issues</text>
  <text x="690" y="550" text-anchor="middle" fill="#475569" font-size="10">E-E-A-T · Page breakdown</text>

  <!-- ══ ARROW: R&A → C&D ══ -->
  <line x1="430" y1="612" x2="430" y2="648" stroke="#1e293b" stroke-width="1.5" marker-end="url(#arr)"/>

  <!-- ══ SECTION 2: CONTENT & DISTRIBUTION ══ -->
  <!-- outer box: y=648, height=472 → bottom=1120 -->
  <rect x="30" y="648" width="800" height="472" rx="4" fill="#ffffff" stroke="#94a3b8" stroke-width="1.5" stroke-dasharray="7 4"/>
  <rect x="30" y="648" width="800" height="30" rx="4" fill="#ffffff" stroke="#94a3b8" stroke-width="1.5" stroke-dasharray="7 4"/>
  <text x="430" y="668" text-anchor="middle" fill="#0f172a" font-size="12" font-weight="700" letter-spacing="3">CONTENT &amp; DISTRIBUTION</text>

  <!-- GROWTH-PM -->
  <rect x="215" y="690" width="430" height="62" rx="3" fill="#f8fafc" stroke="#475569" stroke-width="1.5"/>
  <rect x="215" y="690" width="430" height="22" rx="3" fill="#f1f5f9" stroke="#475569" stroke-width="1.5"/>
  <text x="430" y="705" text-anchor="middle" fill="#1e293b" font-size="11" font-weight="700" letter-spacing="1.5">GROWTH-PM</text>
  <text x="430" y="725" text-anchor="middle" fill="#334155" font-size="11">Reads tracker · tracks citations · learns from GSC + feedback</text>
  <text x="430" y="741" text-anchor="middle" fill="#64748b" font-size="10">Prioritizes across 4 workstreams · flags skill updates · routes work</text>

  <line x1="430" y1="752" x2="430" y2="768" stroke="#475569" stroke-width="1.5" marker-end="url(#arr)"/>

  <!-- AEO-CONTENT-WRITER -->
  <rect x="215" y="768" width="430" height="48" rx="3" fill="#f8fafc" stroke="#475569" stroke-width="1.5"/>
  <rect x="215" y="768" width="430" height="22" rx="3" fill="#f1f5f9" stroke="#475569" stroke-width="1.5"/>
  <text x="430" y="783" text-anchor="middle" fill="#1e293b" font-size="11" font-weight="700" letter-spacing="1.5">AEO-CONTENT-WRITER</text>
  <text x="430" y="805" text-anchor="middle" fill="#334155" font-size="11">Blog post · FAQPage schema · sitemap update</text>

  <line x1="430" y1="816" x2="430" y2="832" stroke="#475569" stroke-width="1.5" marker-end="url(#arr)"/>

  <!-- PUBLISH-CHECKLIST -->
  <rect x="215" y="832" width="430" height="48" rx="3" fill="#f8fafc" stroke="#475569" stroke-width="1.5"/>
  <rect x="215" y="832" width="430" height="22" rx="3" fill="#f1f5f9" stroke="#475569" stroke-width="1.5"/>
  <text x="430" y="847" text-anchor="middle" fill="#1e293b" font-size="11" font-weight="700" letter-spacing="1.5">PUBLISH-CHECKLIST</text>
  <text x="430" y="869" text-anchor="middle" fill="#334155" font-size="11">SEO · schema · a11y · build validation</text>

  <line x1="430" y1="880" x2="430" y2="896" stroke="#475569" stroke-width="1.5" marker-end="url(#arr)"/>

  <!-- DISTRIBUTE-SOCIAL -->
  <rect x="48" y="896" width="368" height="48" rx="3" fill="#f8fafc" stroke="#475569" stroke-width="1.5"/>
  <rect x="48" y="896" width="368" height="22" rx="3" fill="#f1f5f9" stroke="#475569" stroke-width="1.5"/>
  <text x="232" y="911" text-anchor="middle" fill="#1e293b" font-size="11" font-weight="700" letter-spacing="1.5">DISTRIBUTE-SOCIAL</text>
  <text x="232" y="933" text-anchor="middle" fill="#334155" font-size="11">Reddit + LinkedIn drafts in one run</text>

  <!-- DISTRIBUTE-OUTREACH -->
  <rect x="444" y="896" width="368" height="48" rx="3" fill="#f8fafc" stroke="#475569" stroke-width="1.5"/>
  <rect x="444" y="896" width="368" height="22" rx="3" fill="#f1f5f9" stroke="#475569" stroke-width="1.5"/>
  <text x="628" y="911" text-anchor="middle" fill="#1e293b" font-size="11" font-weight="700" letter-spacing="1.5">DISTRIBUTE-OUTREACH</text>
  <text x="628" y="933" text-anchor="middle" fill="#334155" font-size="11">Journalists · Substack · bloggers · pitches</text>

  <!-- Fork from distribute-social -->
  <line x1="160" y1="944" x2="130" y2="962" stroke="#64748b" stroke-width="1.5" marker-end="url(#arr-sm)"/>
  <line x1="304" y1="944" x2="334" y2="962" stroke="#64748b" stroke-width="1.5" marker-end="url(#arr-sm)"/>

  <!-- REDDIT-CONTENT -->
  <rect x="48" y="962" width="172" height="44" rx="3" fill="#f8fafc" stroke="#475569" stroke-width="1.5"/>
  <rect x="48" y="962" width="172" height="22" rx="3" fill="#f1f5f9" stroke="#475569" stroke-width="1.5"/>
  <text x="134" y="977" text-anchor="middle" fill="#1e293b" font-size="10" font-weight="700" letter-spacing="1">REDDIT-CONTENT</text>
  <text x="134" y="997" text-anchor="middle" fill="#334155" font-size="10">Thread drafts</text>

  <!-- LINKEDIN-CONTENT -->
  <rect x="236" y="962" width="180" height="44" rx="3" fill="#f8fafc" stroke="#475569" stroke-width="1.5"/>
  <rect x="236" y="962" width="180" height="22" rx="3" fill="#f1f5f9" stroke="#475569" stroke-width="1.5"/>
  <text x="326" y="977" text-anchor="middle" fill="#1e293b" font-size="10" font-weight="700" letter-spacing="1">LINKEDIN-CONTENT</text>
  <text x="326" y="997" text-anchor="middle" fill="#334155" font-size="10">Post draft + graphic</text>

  <!-- Rejoin social sub-skills → output -->
  <line x1="134" y1="1006" x2="134" y2="1024" stroke="#64748b" stroke-width="1.5"/>
  <line x1="326" y1="1006" x2="326" y2="1024" stroke="#64748b" stroke-width="1.5"/>
  <line x1="134" y1="1024" x2="628" y2="1024" stroke="#64748b" stroke-width="1.5"/>
  <line x1="628" y1="944" x2="628" y2="1024" stroke="#64748b" stroke-width="1.5"/>
  <line x1="430" y1="1024" x2="430" y2="1040" stroke="#475569" stroke-width="1.5" marker-end="url(#arr)"/>

  <!-- OUTPUT -->
  <rect x="162" y="1040" width="536" height="66" rx="3" fill="#ffffff" stroke="#e2e8f0" stroke-width="1.5"/>
  <text x="430" y="1058" text-anchor="middle" fill="#94a3b8" font-size="10" letter-spacing="2">OUTPUT</text>
  <text x="430" y="1074" text-anchor="middle" fill="#475569" font-size="12">Ready-to-use drafts (.md files)</text>
  <text x="430" y="1090" text-anchor="middle" fill="#475569" font-size="12">Outreach contacts · citation tracking baseline</text>

  <!-- Bottom rule -->
  <line x1="30" y1="1128" x2="830" y2="1128" stroke="#e2e8f0" stroke-width="1.5"/>

  <!-- Loopback arrow: output → growth-pm -->
  <polyline points="698,1073 820,1073 820,721 645,721" fill="none" stroke="#1e293b" stroke-width="1.5" stroke-dasharray="5 3" marker-end="url(#arr)"/>
  <text x="808" y="897" text-anchor="middle" fill="#475569" font-size="10" letter-spacing="1" transform="rotate(90, 808, 897)">project status · next action</text>
</svg>
